<svg width="28" height="28" viewBox="0 0 28 28" fill="none" xmlns="http://www.w3.org/2000/svg">
<path d="M19.8899 7.08209C20.0024 7.09142 20.113 7.1178 20.218 7.16022L20.3206 7.20807C20.4203 7.26055 20.512 7.32734 20.592 7.40729L20.6682 7.49127C20.7397 7.57873 20.7976 7.67717 20.8401 7.78229L20.8772 7.88873C20.8982 7.96106 20.912 8.03534 20.9182 8.11041L20.9221 8.22272C20.9201 8.33601 20.9008 8.44852 20.8655 8.55573L20.8245 8.66119C20.7642 8.79648 20.6771 8.91782 20.5696 9.01959L20.5706 9.02057L15.5901 14.0001L20.5706 18.9796L20.6448 19.0626C20.8086 19.2627 20.8997 19.5146 20.8997 19.7755C20.8995 20.0734 20.7811 20.3595 20.5706 20.5704H20.5696C20.3587 20.7809 20.0726 20.8995 19.7747 20.8995C19.5139 20.8994 19.2628 20.8083 19.0627 20.6446L18.9797 20.5704L13.9993 15.5899L9.01978 20.5704C8.80886 20.7809 8.52288 20.8995 8.22485 20.8995C7.96411 20.8994 7.71299 20.8083 7.51294 20.6446L7.42993 20.5704C7.21936 20.3595 7.10095 20.0734 7.10083 19.7755L7.10669 19.6641C7.13219 19.4067 7.24555 19.1642 7.42993 18.9796L12.4094 14.0001L7.42993 9.02057L7.42407 9.01373C7.22535 8.80047 7.11717 8.51808 7.12231 8.22662L7.12915 8.11823C7.15805 7.86701 7.27111 7.63154 7.45142 7.45123L7.53149 7.37799C7.72675 7.21721 7.9718 7.12668 8.22681 7.12213L8.33618 7.12506C8.55223 7.14225 8.75883 7.2218 8.93091 7.35358L9.01392 7.42389L9.02075 7.42975H9.01978L13.9993 12.4092L18.9797 7.42975C19.0815 7.3222 19.2038 7.23614 19.3391 7.17584L19.4446 7.13483C19.5516 7.09953 19.6635 7.08022 19.7766 7.07819L19.8899 7.08209Z" fill="white" stroke="white" stroke-width="0.5"/>
</svg>
