<svg width="6" height="10" viewBox="0 0 6 10" fill="none" xmlns="http://www.w3.org/2000/svg">
<path d="M5.04155 9.95819C4.92658 9.95874 4.81267 9.93631 4.70649 9.89224C4.60031 9.84816 4.504 9.78333 4.42321 9.70153L0.339881 5.6182C0.176023 5.45413 0.0839844 5.23174 0.0839844 4.99986C0.0839844 4.76799 0.176023 4.54559 0.339881 4.38153L4.42321 0.333195C4.58766 0.226573 4.78315 0.178248 4.97834 0.195967C5.17353 0.213686 5.35711 0.296422 5.49967 0.430915C5.64224 0.565407 5.73552 0.743867 5.76457 0.937693C5.79362 1.13152 5.75675 1.32949 5.65988 1.49986L2.15988 4.99986L5.65988 8.49986C5.82374 8.66393 5.91578 8.88632 5.91578 9.11819C5.91578 9.35007 5.82374 9.57246 5.65988 9.73653C5.49103 9.889 5.26881 9.96866 5.04155 9.95819Z" fill="#64748B"/>
</svg>
