<svg width="42" height="42" viewBox="0 0 42 42" fill="none" xmlns="http://www.w3.org/2000/svg">
<g filter="url(#filter0_d_14811_8039)">
<rect x="9" y="5" width="24" height="24" rx="12" fill="#CC353C"/>
<rect x="9.6" y="5.6" width="22.8" height="22.8" rx="11.4" stroke="#CC353C" stroke-width="1.2"/>
</g>
<path d="M22.0601 17L26.4801 12.58C26.5538 12.5113 26.6129 12.4285 26.6539 12.3365C26.6949 12.2445 26.7169 12.1452 26.7187 12.0445C26.7205 11.9438 26.702 11.8437 26.6642 11.7504C26.6265 11.657 26.5704 11.5721 26.4992 11.5009C26.4279 11.4297 26.3431 11.3736 26.2497 11.3358C26.1563 11.2981 26.0563 11.2796 25.9556 11.2814C25.8549 11.2831 25.7556 11.3052 25.6636 11.3462C25.5716 11.3872 25.4888 11.4463 25.4201 11.52L21.0001 15.94L16.5801 11.52C16.4379 11.3875 16.2499 11.3154 16.0556 11.3188C15.8613 11.3222 15.6759 11.4009 15.5385 11.5383C15.4011 11.6757 15.3224 11.8611 15.3189 12.0554C15.3155 12.2497 15.3876 12.4378 15.5201 12.58L19.9401 17L15.5201 21.42C15.3797 21.5606 15.3008 21.7512 15.3008 21.95C15.3008 22.1487 15.3797 22.3393 15.5201 22.48C15.6607 22.6204 15.8514 22.6993 16.0501 22.6993C16.2489 22.6993 16.4395 22.6204 16.5801 22.48L21.0001 18.06L25.4201 22.48C25.5607 22.6204 25.7514 22.6993 25.9501 22.6993C26.1489 22.6993 26.3395 22.6204 26.4801 22.48C26.6206 22.3393 26.6995 22.1487 26.6995 21.95C26.6995 21.7512 26.6206 21.5606 26.4801 21.42L22.0601 17Z" fill="white"/>
<defs>
<filter id="filter0_d_14811_8039" x="0" y="0" width="42" height="42" filterUnits="userSpaceOnUse" color-interpolation-filters="sRGB">
<feFlood flood-opacity="0" result="BackgroundImageFix"/>
<feColorMatrix in="SourceAlpha" type="matrix" values="0 0 0 0 0 0 0 0 0 0 0 0 0 0 0 0 0 0 127 0" result="hardAlpha"/>
<feMorphology radius="1" operator="dilate" in="SourceAlpha" result="effect1_dropShadow_14811_8039"/>
<feOffset dy="4"/>
<feGaussianBlur stdDeviation="4"/>
<feComposite in2="hardAlpha" operator="out"/>
<feColorMatrix type="matrix" values="0 0 0 0 0.8 0 0 0 0 0.207843 0 0 0 0 0.235294 0 0 0 0.2 0"/>
<feBlend mode="normal" in2="BackgroundImageFix" result="effect1_dropShadow_14811_8039"/>
<feBlend mode="normal" in="SourceGraphic" in2="effect1_dropShadow_14811_8039" result="shape"/>
</filter>
</defs>
</svg>
