<svg width="6" height="10" viewBox="0 0 6 10" fill="none" xmlns="http://www.w3.org/2000/svg">
<path d="M0.958452 0.0418053C1.07342 0.0412626 1.18733 0.0636864 1.29351 0.107761C1.39969 0.151836 1.496 0.216674 1.57679 0.298471L5.66012 4.3818C5.82398 4.54587 5.91602 4.76826 5.91602 5.00014C5.91602 5.23201 5.82398 5.45441 5.66012 5.61847L1.57679 9.6668C1.41234 9.77343 1.21685 9.82175 1.02166 9.80403C0.826475 9.78631 0.642888 9.70358 0.500326 9.56909C0.357763 9.43459 0.264482 9.25613 0.235433 9.06231C0.206384 8.86848 0.243249 8.67051 0.340119 8.50014L3.84012 5.00014L0.340119 1.50014C0.17626 1.33607 0.0842223 1.11368 0.0842223 0.881805C0.0842223 0.649929 0.17626 0.427536 0.340119 0.263473C0.508972 0.110997 0.731185 0.0313358 0.958452 0.0418053Z" fill="#64748B"/>
</svg>
