<svg width="16" height="12" viewBox="0 0 16 12" fill="none" xmlns="http://www.w3.org/2000/svg">
<path d="M14.6436 0.65332C14.8386 0.67103 15.0225 0.753326 15.165 0.887695C15.3075 1.02213 15.4006 1.2008 15.4297 1.39453C15.4587 1.58835 15.4221 1.78665 15.3252 1.95703L15.3086 1.98633L6.11816 11.1768L6.11719 11.1758C6.04111 11.259 5.95067 11.3278 5.84863 11.376C5.74194 11.4263 5.6257 11.454 5.50781 11.458H5.49121C5.37332 11.454 5.25708 11.4263 5.15039 11.376C5.04815 11.3277 4.95701 11.2592 4.88086 11.1758V11.1768L0.726562 7.02148C0.628436 6.95196 0.544701 6.86392 0.482422 6.76074C0.413995 6.64731 0.372328 6.51963 0.360352 6.3877C0.348421 6.25578 0.366181 6.12289 0.413086 5.99902C0.459982 5.87518 0.534579 5.76376 0.630859 5.67285C0.727277 5.58189 0.843244 5.51328 0.969727 5.47363C1.09618 5.43401 1.23027 5.42372 1.36133 5.44336C1.49231 5.46301 1.61733 5.51201 1.72656 5.58691C1.82354 5.65345 1.90466 5.73999 1.96777 5.83887L5.49902 9.34668L14.0479 0.823242L14.0664 0.804688L14.0889 0.790039C14.2532 0.683543 14.4485 0.635683 14.6436 0.65332Z" fill="white" stroke="white" stroke-width="0.5"/>
</svg>
