<svg width="24" height="24" viewBox="0 0 24 24" fill="none" xmlns="http://www.w3.org/2000/svg">
<path d="M12.0012 15.5L12.0012 15.5001L12.0085 15.4999C12.1432 15.4954 12.2756 15.4634 12.3975 15.4058C12.5169 15.3495 12.6238 15.2699 12.712 15.1717L17.7068 10.1768L17.7307 10.1529L17.7474 10.1236C17.8581 9.92889 17.9002 9.70264 17.867 9.48112C17.8338 9.25961 17.7272 9.05566 17.5643 8.90195C17.4014 8.74824 17.1916 8.65369 16.9685 8.63344C16.7454 8.61319 16.522 8.66842 16.3341 8.79027L16.3123 8.80438L16.2939 8.82267L12.0001 13.0877L7.70624 8.82267L7.69258 8.8091L7.677 8.79778C7.48637 8.65929 7.25295 8.59255 7.01792 8.60936C6.78289 8.62616 6.56134 8.72542 6.39235 8.88963C6.22336 9.05384 6.11778 9.27245 6.09424 9.5069C6.0707 9.74135 6.1307 9.97658 6.26367 10.1711L6.27681 10.1903L6.29328 10.2068L11.2922 15.2057C11.2924 15.2059 11.2926 15.2061 11.2928 15.2063C11.3853 15.2998 11.4955 15.374 11.617 15.4244C11.7388 15.4749 11.8694 15.5007 12.0012 15.5Z" fill="#64748B" stroke="#64748B" stroke-width="0.5"/>
</svg>
